# xmcd
#
# Track frame offsets:
#	150
#	13518
#	30645
#	54470
#	71103
#	89220
#	107558
#	124140
#	138235
#	152293
#	165428
#
# Disc length: 2382 seconds
#
# Revision: 3
# Processed by: cddbd v1.5.2PL0 Copyright (c) Steve Scherf et al.
# Submitted via: audiograbber 1.83.01
#
DISCID=89094c0b
DTITLE=Cheb Mami - Saïda
DYEAR=1994
DGENRE=Raï
TTITLE0=H'babi
TTITLE1=Ma Ma
TTITLE2=Gualbak K'ssah
TTITLE3=Hay Wadi Hay Galbi
TTITLE4=Bent Bareh
TTITLE5=Baida
TTITLE6=Ghi N'ti
TTITLE7=Li Fet Ghi Mnem
TTITLE8=Zouaji
TTITLE9=Alache Alache
TTITLE10=Trab
EXTD=
EXTT0=
EXTT1=
EXTT2=
EXTT3=
EXTT4=
EXTT5=
EXTT6=
EXTT7=
EXTT8=
EXTT9=
EXTT10=
PLAYORDER=
